<svg xmlns="http://www.w3.org/2000/svg" width="362" height="269" viewBox="0 0 362 269"><defs><linearGradient id="694ya" x1="271.63" x2="271.63" y1="183.93" y2="63.1" gradientUnits="userSpaceOnUse"><stop offset="0" stop-color="gray" stop-opacity=".25"/><stop offset=".54" stop-color="gray" stop-opacity=".12"/><stop offset="1" stop-color="gray" stop-opacity=".1"/></linearGradient></defs><g><g><g opacity=".1"><path fill="#475eff" d="M159.41 10.119C145.094 4.299 129.972-.56 114.534.052 91.837.945 70.067 14.6 59.38 34.645c-9.057 16.984-10.174 36.89-14.074 55.737-4.812 23.224-14.015 45.287-23.848 66.868-5.28 11.593-10.852 23.436-11.716 36.146-1.205 17.639 7.228 35.22 20.458 46.955 13.23 11.736 30.79 17.929 48.42 19.28 9.382.717 19.185.052 27.52-4.316 8.814-4.618 15.244-12.967 24.093-17.52 8.202-4.22 17.798-4.815 27.007-4.263a121.016 121.016 0 0 1 35.26 7.495c12.872 4.835 24.841 11.833 37.684 16.736 12.843 4.904 27.193 7.635 40.322 3.546 12.32-3.841 22.081-13.17 30.849-22.62a395.79 395.79 0 0 0 39.347-49.781c7.927-11.872 15.305-24.4 18.812-38.24 6.699-26.46-2.523-56.311-22.978-74.363-16.938-14.98-39.682-21.475-61.945-25.43-20.302-3.594-43.777-3.819-62.465-13.19-17.821-8.937-34.038-19.968-52.717-27.566z"/></g><g><path fill="#464a5f" d="M303.306 187.34l.543.545.243-.938-.26-.926h-.668z"/></g><g opacity=".1"><path d="M303.306 187.34l.543.545.243-.938-.26-.926h-.668z"/></g><g><path fill="#9c9ca1" d="M303.307 187.34l.526.561-.526.617-.565-.21-.14-.274z"/></g><g opacity=".1"><path d="M303.307 187.34l.526.561-.526.617-.565-.21-.14-.274z"/></g><g><path fill="#9c9ca1" d="M203.348 88.693l-59.386 59.387a5.709 5.709 0 0 0-.016 8.056l91.028 91.752a5.709 5.709 0 0 0 8.06.043l60.272-59.41z"/></g><g opacity=".1"><path d="M203.348 88.693l-59.386 59.387a5.709 5.709 0 0 0-.016 8.056l91.028 91.752a5.709 5.709 0 0 0 8.06.043l60.272-59.41z"/></g><g><path fill="#9c9ca1" d="M203.348 87.514l-59.386 59.387a5.709 5.709 0 0 0-.016 8.056l91.028 91.75a5.709 5.709 0 0 0 8.06.045l60.272-59.426z"/></g><g><path fill="#464a5f" d="M209.583 45.77l-5.449 41.352 99.958 99.824 5.742-42.032a6.08 6.08 0 0 0-1.767-5.173l-96.444-94.678a1.208 1.208 0 0 0-2.04.708z"/></g><g opacity=".1"><path d="M209.583 45.77l-5.449 41.352 99.958 99.824 5.742-42.032a6.08 6.08 0 0 0-1.767-5.173l-96.444-94.678a1.208 1.208 0 0 0-2.04.708z"/></g><g><path fill="#464a5f" d="M208.797 46.163l-5.449 41.351 99.959 99.825 5.74-42.032a6.08 6.08 0 0 0-1.766-5.173l-96.444-94.678a1.208 1.208 0 0 0-2.04.708z"/></g><g opacity=".1"><g opacity=".1"><path d="M203.615 106.518L200 110.164a1.146 1.146 0 0 0 0 1.624l3.664 3.757a1.15 1.15 0 0 0 1.623.033l3.598-3.397c.455-.43.481-1.146.059-1.608l-3.663-4.007a1.146 1.146 0 0 0-1.666-.048z"/></g><g opacity=".1"><path d="M210.35 113.256l-3.602 3.643a1.146 1.146 0 0 0 0 1.608l3.663 3.757a1.146 1.146 0 0 0 1.624.032l3.598-3.393a1.153 1.153 0 0 0 .058-1.624l-3.676-3.997a1.147 1.147 0 0 0-1.665-.026z"/></g><g opacity=".1"><path d="M217.422 120.325l-3.601 3.647a1.15 1.15 0 0 0 0 1.607l3.666 3.757a1.15 1.15 0 0 0 1.624.033l3.598-3.397c.455-.43.481-1.145.058-1.607l-3.663-4.007a1.146 1.146 0 0 0-1.682-.033z"/></g><g opacity=".1"><path d="M224.573 127.479l-3.598 3.663a1.15 1.15 0 0 0 0 1.607l3.666 3.757a1.15 1.15 0 0 0 1.624.033l3.594-3.397a1.143 1.143 0 0 0 .062-1.607l-3.682-4.024a1.15 1.15 0 0 0-1.666-.032z"/></g><g opacity=".1"><path d="M231.727 134.633l-3.599 3.653a1.15 1.15 0 0 0 0 1.623l3.667 3.758a1.15 1.15 0 0 0 1.623.032l3.595-3.397a1.143 1.143 0 0 0 .062-1.607l-3.663-4.007a1.15 1.15 0 0 0-1.685-.055z"/></g><g opacity=".1"><path d="M239.332 141.329l-4.472 4.53a.539.539 0 0 0 0 .753l4.504 4.614a.54.54 0 0 0 .754 0l4.471-4.221a.536.536 0 0 0 .026-.754l-4.5-4.922a.54.54 0 0 0-.783 0z"/></g><g opacity=".1"><path d="M246.485 148.482l-4.471 4.547a.536.536 0 0 0 0 .75l4.504 4.617a.54.54 0 0 0 .753 0l4.472-4.221a.536.536 0 0 0 .026-.754l-4.501-4.922a.538.538 0 0 0-.783-.017z"/></g><g opacity=".1"><path d="M252.818 154.815l-4.472 4.546a.536.536 0 0 0 0 .75l4.504 4.618a.54.54 0 0 0 .754 0l4.471-4.222a.536.536 0 0 0 .026-.753l-4.504-4.907a.539.539 0 0 0-.78-.032z"/></g><g opacity=".1"><path d="M259.91 161.907l-4.472 4.526a.536.536 0 0 0 0 .754l4.504 4.614a.536.536 0 0 0 .753 0l4.472-4.221a.539.539 0 0 0 .026-.754l-4.5-4.923a.539.539 0 0 0-.783.004z"/></g><g opacity=".1"><path d="M266.778 168.775l-4.472 4.526a.536.536 0 0 0 0 .754l4.504 4.617c.21.205.544.205.754 0l4.471-4.221a.539.539 0 0 0 .026-.753l-4.517-4.907a.539.539 0 0 0-.766-.016z"/></g><g opacity=".1"><path d="M273.646 175.63l-4.478 4.546a.536.536 0 0 0 0 .75l4.504 4.618c.21.204.544.204.753 0l4.472-4.222a.536.536 0 0 0 .026-.753l-4.501-4.923a.539.539 0 0 0-.776-.016z"/></g><g opacity=".1"><path d="M280.514 182.51l-4.472 4.53a.539.539 0 0 0 0 .754l4.491 4.614a.54.54 0 0 0 .754.017l4.471-4.222a.536.536 0 0 0 .026-.753l-4.5-4.923a.54.54 0 0 0-.77-.016z"/></g><g opacity=".1"><path d="M197.078 113.058l-3.598 3.643a1.146 1.146 0 0 0 0 1.624l3.666 3.757a1.146 1.146 0 0 0 1.624.032l3.595-3.393a1.15 1.15 0 0 0 .061-1.624l-3.685-4.01a1.15 1.15 0 0 0-1.663-.03z"/></g><g opacity=".1"><path d="M182.79 127.342l-3.601 3.644a1.15 1.15 0 0 0 0 1.624l3.663 3.727a1.146 1.146 0 0 0 1.607.036l3.598-3.396c.457-.43.483-1.147.058-1.608l-3.663-3.994a1.146 1.146 0 0 0-1.662-.032z"/></g><g opacity=".1"><path d="M203.813 119.793l-3.601 3.643a1.146 1.146 0 0 0 0 1.624l3.663 3.757a1.15 1.15 0 0 0 1.623.035l3.595-3.412a1.153 1.153 0 0 0 .058-1.624l-3.663-4.004a1.143 1.143 0 0 0-1.675-.02z"/></g><g opacity=".1"><path d="M210.882 126.865l-3.598 3.644a1.146 1.146 0 0 0 0 1.607l3.666 3.757a1.146 1.146 0 0 0 1.624.033l3.595-3.394a1.15 1.15 0 0 0 .061-1.623l-3.662-4.008a1.15 1.15 0 0 0-1.686-.016z"/></g><g opacity=".1"><path d="M218.036 134.016l-3.598 3.646a1.146 1.146 0 0 0 0 1.608l3.666 3.757c.437.45 1.153.464 1.608.032l3.598-3.393a1.15 1.15 0 0 0 .061-1.624l-3.67-3.978a1.153 1.153 0 0 0-1.665-.048z"/></g><g opacity=".1"><path d="M189.755 133.85l-3.6 3.644a1.146 1.146 0 0 0 0 1.607l3.662 3.757a1.146 1.146 0 0 0 1.624.033l3.598-3.394a1.153 1.153 0 0 0 .058-1.624l-3.663-4.003a1.143 1.143 0 0 0-1.679-.02z"/></g><g opacity=".1"><path d="M196.825 140.92l-3.598 3.646a1.146 1.146 0 0 0 0 1.624l3.666 3.757a1.146 1.146 0 0 0 1.623.032l3.595-3.393a1.15 1.15 0 0 0 .062-1.624l-3.663-4.007a1.15 1.15 0 0 0-1.685-.036z"/></g><g opacity=".1"><path d="M203.978 148.073l-3.598 3.647a1.146 1.146 0 0 0 0 1.607l3.667 3.757a1.15 1.15 0 0 0 1.623.033l3.595-3.397a1.143 1.143 0 0 0 .062-1.607l-3.663-4.007a1.15 1.15 0 0 0-1.686-.033z"/></g><g opacity=".1"><path d="M225.19 141.17l-3.598 3.646a1.146 1.146 0 0 0 0 1.608l3.666 3.757a1.146 1.146 0 0 0 1.623.032l3.599-3.393a1.146 1.146 0 0 0 .058-1.624l-3.686-3.988a1.146 1.146 0 0 0-1.662-.039z"/></g><g opacity=".1"><path d="M232.344 148.323l-3.602 3.647a1.146 1.146 0 0 0 0 1.607l3.666 3.757a1.147 1.147 0 0 0 1.624.033l3.598-3.397c.457-.429.483-1.146.059-1.607l-3.683-4.01a1.147 1.147 0 0 0-1.662-.03z"/></g><g opacity=".1"><path d="M239.942 155.02l-4.471 4.545a.536.536 0 0 0 0 .754l4.507 4.595a.536.536 0 0 0 .753 0l4.472-4.222a.539.539 0 0 0 .026-.753l-4.5-4.923a.54.54 0 0 0-.787.003z"/></g><g opacity=".1"><path d="M246.281 161.342l-4.472 4.546a.536.536 0 0 0 0 .753l4.504 4.615a.536.536 0 0 0 .754 0l4.471-4.222a.539.539 0 0 0 .026-.753l-4.5-4.923a.539.539 0 0 0-.783-.016z"/></g><g opacity=".1"><path d="M253.373 168.443l-4.475 4.547a.536.536 0 0 0 0 .75l4.5 4.617a.54.54 0 0 0 .754 0l4.472-4.221a.536.536 0 0 0 .03-.753l-4.502-4.923a.54.54 0 0 0-.779-.017z"/></g><g opacity=".1"><path d="M260.241 175.305l-4.472 4.546a.536.536 0 0 0 0 .753l4.501 4.615c.21.205.546.205.757 0l4.468-4.222a.536.536 0 0 0 .03-.753l-4.501-4.923a.538.538 0 0 0-.783-.016z"/></g><g opacity=".1"><path d="M204.086 133.662l-3.602 3.65a1.146 1.146 0 0 0 0 1.607l3.667 3.757a1.143 1.143 0 0 0 1.623.033l3.598-3.394a1.15 1.15 0 0 0 .059-1.623l-3.683-3.998a1.143 1.143 0 0 0-1.662-.032z"/></g><g opacity=".1"><path d="M211.24 140.815l-3.602 3.64a1.146 1.146 0 0 0 0 1.608l3.666 3.757a1.143 1.143 0 0 0 1.624.033l3.598-3.394a1.153 1.153 0 0 0 .058-1.623l-3.663-4.004a1.143 1.143 0 0 0-1.682-.017z"/></g><g opacity=".1"><path d="M218.393 147.97l-3.601 3.63a1.146 1.146 0 0 0 0 1.607l3.663 3.757a1.146 1.146 0 0 0 1.623.033l3.599-3.394a1.153 1.153 0 0 0 .058-1.623l-3.663-4.008a1.146 1.146 0 0 0-1.679-.003z"/></g><g opacity=".1"><path d="M225.547 155.123l-3.601 3.643a1.146 1.146 0 0 0 0 1.608l3.663 3.757a1.146 1.146 0 0 0 1.623.032l3.598-3.393a1.153 1.153 0 0 0 .059-1.624l-3.663-4.007a1.146 1.146 0 0 0-1.679-.016z"/></g><g opacity=".1"><path d="M233.152 161.819l-4.475 4.527a.54.54 0 0 0 0 .753l4.501 4.614a.536.536 0 0 0 .753 0l4.472-4.221a.536.536 0 0 0 .03-.753l-4.502-4.927a.535.535 0 0 0-.779.007z"/></g><g opacity=".1"><path d="M239.484 168.16l-4.474 4.528a.539.539 0 0 0 0 .753l4.5 4.614a.536.536 0 0 0 .754 0l4.471-4.221a.536.536 0 0 0 .03-.753l-4.498-4.92a.536.536 0 0 0-.783 0z"/></g><g opacity=".1"><path d="M246.573 175.24l-4.471 4.546a.539.539 0 0 0 0 .754l4.5 4.614c.205.21.54.218.754.016l4.471-4.221a.536.536 0 0 0 .03-.754l-4.505-4.922a.54.54 0 0 0-.779-.033z"/></g><g opacity=".1"><path d="M253.444 182.124l-4.474 4.514a.539.539 0 0 0 0 .753l4.5 4.615c.205.21.54.218.754.016l4.471-4.221a.536.536 0 0 0 .03-.754l-4.495-4.923a.533.533 0 0 0-.786 0z"/></g><g opacity=".1"><path d="M267.109 182.18l-4.472 4.546a.536.536 0 0 0 0 .753l4.504 4.614c.205.211.54.218.754.017l4.471-4.222a.54.54 0 0 0 .026-.753l-4.5-4.923a.539.539 0 0 0-.783-.033z"/></g><g opacity=".1"><path d="M273.977 189.05l-4.485 4.527a.536.536 0 0 0 0 .754l4.514 4.614c.204.211.54.218.754.016l4.471-4.221a.539.539 0 0 0 .026-.753l-4.5-4.923a.536.536 0 0 0-.78-.013z"/></g><g opacity=".1"><path d="M239.182 182.634l-4.221 4.264a.72.72 0 0 0 0 1.01l4.25 4.357a.72.72 0 0 0 1.01.02l4.222-3.972a.724.724 0 0 0 .045-.993l-4.25-4.65a.724.724 0 0 0-1.056-.036z"/></g><g opacity=".1"><path d="M246.05 189.502l-4.221 4.264a.72.72 0 0 0 0 1.01l4.25 4.358c.276.28.725.289 1.01.019l4.222-3.971a.721.721 0 0 0 .039-1.01l-4.264-4.65a.724.724 0 0 0-1.036-.02z"/></g><g opacity=".1"><path d="M252.931 196.37l-4.221 4.264a.72.72 0 0 0 0 1.01l4.25 4.358a.721.721 0 0 0 1.01.022l4.222-3.974a.718.718 0 0 0 .039-1.01l-4.25-4.647a.718.718 0 0 0-1.05-.023z"/></g><g opacity=".1"><path d="M259.923 203.102l-4.472 4.53a.54.54 0 0 0 0 .753l4.504 4.614a.536.536 0 0 0 .754 0l4.471-4.221a.536.536 0 0 0 .026-.754l-4.5-4.922a.54.54 0 0 0-.783 0z"/></g><g opacity=".1"><path d="M189.999 119.757l-3.838 3.916a1.146 1.146 0 0 0 0 1.624l10.716 10.609a1.15 1.15 0 0 0 1.594.019l4-3.764a1.15 1.15 0 0 0 .024-1.652l-10.879-10.762a1.146 1.146 0 0 0-1.617.01z"/></g><g opacity=".1"><path d="M260.144 189.034l-4.693 4.78a.546.546 0 0 0 0 .76l11.564 11.447a.536.536 0 0 0 .747 0l4.89-4.601a.536.536 0 0 0 0-.773l-11.765-11.639a.539.539 0 0 0-.743.026z"/></g><g opacity=".1"><path d="M211.366 154.789l-4.478 4.435a.533.533 0 0 0 0 .757l24.936 25.56c.21.204.544.204.753 0l4.871-4.596a.536.536 0 0 0 0-.77L212.12 154.78a.54.54 0 0 0-.753.01z"/></g></g><g><path fill="#464a5f" d="M203.615 105.732L200 109.385a1.146 1.146 0 0 0 0 1.607l3.663 3.757a1.15 1.15 0 0 0 1.624.033l3.598-3.397c.455-.43.481-1.145.059-1.607l-3.663-4.007a1.146 1.146 0 0 0-1.666-.04z"/></g><g><path fill="#464a5f" d="M210.35 112.47l-3.602 3.643a1.146 1.146 0 0 0 0 1.608l3.663 3.757a1.146 1.146 0 0 0 1.624.032l3.598-3.393a1.153 1.153 0 0 0 .058-1.624l-3.676-3.994a1.146 1.146 0 0 0-1.665-.03z"/></g><g><path fill="#464a5f" d="M217.422 119.54l-3.601 3.646a1.15 1.15 0 0 0 0 1.607l3.66 3.751a1.15 1.15 0 0 0 1.623.032l3.598-3.396a1.146 1.146 0 0 0 .059-1.624l-3.663-4.007a1.147 1.147 0 0 0-1.676-.01z"/></g><g><path fill="#464a5f" d="M224.573 126.693l-3.598 3.643a1.153 1.153 0 0 0 0 1.624l3.666 3.757a1.15 1.15 0 0 0 1.624.033l3.594-3.397a1.143 1.143 0 0 0 .062-1.607l-3.682-4.02a1.15 1.15 0 0 0-1.666-.033z"/></g><g><path fill="#464a5f" d="M231.726 133.847l-3.598 3.643a1.15 1.15 0 0 0 0 1.624l3.667 3.754a1.15 1.15 0 0 0 1.623.036l3.595-3.397a1.144 1.144 0 0 0 .062-1.624l-3.663-4.007a1.15 1.15 0 0 0-1.685-.03z"/></g><g><path fill="#464a5f" d="M239.332 140.56l-4.472 4.513a.536.536 0 0 0 0 .75l4.504 4.618a.54.54 0 0 0 .753.016l4.472-4.222a.536.536 0 0 0 .026-.753l-4.504-4.923a.54.54 0 0 0-.78 0z"/></g><g><path fill="#464a5f" d="M246.485 147.703l-4.471 4.53a.536.536 0 0 0 0 .75l4.504 4.618c.21.204.544.204.753 0l4.472-4.222a.536.536 0 0 0 .026-.753l-4.504-4.923a.539.539 0 0 0-.78 0z"/></g><g><path fill="#464a5f" d="M252.818 154.029l-4.472 4.53a.536.536 0 0 0 0 .75l4.5 4.63c.21.205.545.205.754 0l4.472-4.221a.536.536 0 0 0 .026-.753l-4.501-4.923a.54.54 0 0 0-.78-.013z"/></g><g><path fill="#464a5f" d="M259.91 161.12l-4.472 4.527a.536.536 0 0 0 0 .754l4.504 4.614c.204.211.54.218.753.017l4.472-4.222a.539.539 0 0 0 .026-.753l-4.5-4.926a.54.54 0 0 0-.783-.01z"/></g><g><path fill="#464a5f" d="M266.778 167.989l-4.472 4.527a.536.536 0 0 0 0 .753l4.501 4.634c.21.204.544.204.753 0l4.472-4.222a.54.54 0 0 0 .026-.753l-4.514-4.923a.54.54 0 0 0-.766-.016z"/></g><g><path fill="#464a5f" d="M273.646 174.857l-4.472 4.546a.536.536 0 0 0 0 .75l4.504 4.618a.54.54 0 0 0 .754 0l4.471-4.222a.536.536 0 0 0 .026-.753l-4.5-4.923a.54.54 0 0 0-.783-.016z"/></g><g><path fill="#464a5f" d="M280.514 181.725l-4.472 4.546a.539.539 0 0 0 0 .753l4.491 4.599c.21.204.544.204.754 0l4.471-4.222a.536.536 0 0 0 .026-.753l-4.5-4.923a.54.54 0 0 0-.77 0z"/></g><g><path fill="#464a5f" d="M197.078 112.272l-3.598 3.643a1.146 1.146 0 0 0 0 1.608l3.666 3.757a1.146 1.146 0 0 0 1.624.032l3.594-3.393a1.15 1.15 0 0 0 .062-1.624l-3.685-3.987a1.15 1.15 0 0 0-1.663-.036z"/></g><g><path fill="#464a5f" d="M182.79 126.557l-3.601 3.643a1.15 1.15 0 0 0 0 1.624l3.666 3.754a1.146 1.146 0 0 0 1.607.035l3.598-3.396a1.15 1.15 0 0 0 .059-1.624l-3.667-3.997a1.143 1.143 0 0 0-1.662-.04z"/></g><g><path fill="#464a5f" d="M203.813 119.007l-3.601 3.643a1.146 1.146 0 0 0 0 1.608l3.663 3.757a1.146 1.146 0 0 0 1.623.032l3.595-3.4a1.153 1.153 0 0 0 .058-1.623l-3.663-4.004a1.143 1.143 0 0 0-1.675-.013z"/></g><g><path fill="#464a5f" d="M210.882 126.076l-3.598 3.647a1.146 1.146 0 0 0 0 1.607l3.666 3.757a1.146 1.146 0 0 0 1.624.033l3.595-3.394a1.15 1.15 0 0 0 .061-1.623l-3.682-3.995a1.153 1.153 0 0 0-1.666-.032z"/></g><g><path fill="#464a5f" d="M218.036 133.23l-3.598 3.647a1.146 1.146 0 0 0 0 1.607l3.666 3.757a1.146 1.146 0 0 0 1.608.032l3.597-3.393a1.15 1.15 0 0 0 .062-1.624l-3.663-4.007a1.15 1.15 0 0 0-1.672-.02z"/></g><g><path fill="#464a5f" d="M189.755 133.064l-3.6 3.644a1.146 1.146 0 0 0 0 1.607l3.662 3.757a1.146 1.146 0 0 0 1.624.033l3.598-3.394a1.153 1.153 0 0 0 .058-1.623l-3.68-3.998a1.143 1.143 0 0 0-1.662-.026z"/></g><g><path fill="#464a5f" d="M196.825 140.134l-3.598 3.646a1.146 1.146 0 0 0 0 1.608l3.666 3.757a1.15 1.15 0 0 0 1.623.032l3.595-3.393a1.15 1.15 0 0 0 .062-1.624l-3.663-4.007a1.15 1.15 0 0 0-1.685-.02z"/></g><g><path fill="#464a5f" d="M203.978 147.287l-3.598 3.663a1.146 1.146 0 0 0 0 1.608l3.667 3.757a1.15 1.15 0 0 0 1.623.032l3.595-3.396a1.143 1.143 0 0 0 .062-1.608l-3.663-4.007a1.15 1.15 0 0 0-1.686-.049z"/></g><g><path fill="#464a5f" d="M225.19 140.384l-3.598 3.646a1.146 1.146 0 0 0 0 1.608l3.666 3.757a1.146 1.146 0 0 0 1.623.032l3.599-3.396a1.143 1.143 0 0 0 .058-1.624l-3.663-4.007a1.146 1.146 0 0 0-1.685-.016z"/></g><g><path fill="#464a5f" d="M232.344 147.537l-3.602 3.647a1.146 1.146 0 0 0 0 1.607l3.666 3.758a1.147 1.147 0 0 0 1.624.032l3.598-3.397c.457-.429.483-1.146.059-1.607l-3.663-4.007a1.146 1.146 0 0 0-1.682-.033z"/></g><g><path fill="#464a5f" d="M239.942 154.233l-4.471 4.53a.536.536 0 0 0 0 .754l4.504 4.614a.536.536 0 0 0 .753 0l4.472-4.221a.539.539 0 0 0 .026-.754l-4.501-4.923a.54.54 0 0 0-.783 0z"/></g><g><path fill="#464a5f" d="M246.28 160.566l-4.47 4.53a.536.536 0 0 0 0 .753l4.503 4.614a.536.536 0 0 0 .754 0l4.471-4.221a.539.539 0 0 0 .026-.754l-4.5-4.922a.539.539 0 0 0-.783 0z"/></g><g><path fill="#464a5f" d="M253.373 167.658l-4.475 4.53a.536.536 0 0 0 0 .75l4.501 4.617a.54.54 0 0 0 .753 0l4.472-4.221a.536.536 0 0 0 .03-.753l-4.502-4.907a.539.539 0 0 0-.779-.016z"/></g><g><path fill="#464a5f" d="M260.241 174.526l-4.472 4.53a.536.536 0 0 0 0 .753l4.501 4.614c.21.205.546.205.757 0l4.468-4.221a.536.536 0 0 0 .03-.754l-4.501-4.922a.54.54 0 0 0-.783 0z"/></g><g><path fill="#464a5f" d="M204.086 132.876l-3.602 3.643a1.146 1.146 0 0 0 0 1.608l3.667 3.757a1.143 1.143 0 0 0 1.623.032l3.598-3.393a1.15 1.15 0 0 0 .059-1.624l-3.683-3.99a1.143 1.143 0 0 0-1.662-.033z"/></g><g><path fill="#464a5f" d="M211.24 140.03l-3.602 3.643a1.146 1.146 0 0 0 0 1.624l3.666 3.757a1.143 1.143 0 0 0 1.624.032l3.598-3.393a1.153 1.153 0 0 0 .058-1.624l-3.663-4.004a1.143 1.143 0 0 0-1.682-.035z"/></g><g><path fill="#464a5f" d="M218.393 147.183l-3.601 3.644a1.146 1.146 0 0 0 0 1.607l3.663 3.757a1.146 1.146 0 0 0 1.623.033l3.598-3.394a1.153 1.153 0 0 0 .059-1.623l-3.663-4.007a1.146 1.146 0 0 0-1.679-.017z"/></g><g><path fill="#464a5f" d="M225.547 154.334l-3.601 3.647a1.147 1.147 0 0 0 0 1.623l3.663 3.757a1.146 1.146 0 0 0 1.623.033L230.83 160a1.153 1.153 0 0 0 .059-1.623l-3.663-4.007a1.15 1.15 0 0 0-1.68-.036z"/></g><g><path fill="#464a5f" d="M233.152 161.033l-4.475 4.53a.54.54 0 0 0 0 .753l4.501 4.615c.204.21.54.218.753.016l4.472-4.221a.54.54 0 0 0 .03-.757l-4.502-4.923a.535.535 0 0 0-.779-.013z"/></g><g><path fill="#464a5f" d="M239.484 167.365l-4.474 4.527a.539.539 0 0 0 0 .753l4.5 4.608c.204.211.54.218.754.017l4.471-4.222a.539.539 0 0 0 .03-.757l-4.498-4.913a.535.535 0 0 0-.783-.013z"/></g><g><path fill="#464a5f" d="M246.573 174.454L242.102 179a.539.539 0 0 0 0 .754l4.5 4.614a.536.536 0 0 0 .754 0l4.471-4.221a.536.536 0 0 0 .03-.754l-4.504-4.923a.539.539 0 0 0-.78-.016z"/></g><g><path fill="#464a5f" d="M253.444 181.325l-4.474 4.527a.54.54 0 0 0 0 .753l4.5 4.612a.536.536 0 0 0 .754 0l4.471-4.222a.536.536 0 0 0 .03-.753l-4.495-4.904a.532.532 0 0 0-.786-.013z"/></g><g><path fill="#464a5f" d="M267.109 181.394l-4.472 4.546a.536.536 0 0 0 0 .753l4.504 4.615a.536.536 0 0 0 .754 0l4.471-4.222a.54.54 0 0 0 .026-.753l-4.504-4.923a.54.54 0 0 0-.779-.016z"/></g><g><path fill="#464a5f" d="M273.977 188.262l-4.472 4.546a.536.536 0 0 0 0 .753l4.504 4.615a.536.536 0 0 0 .754 0l4.471-4.222a.539.539 0 0 0 .026-.753l-4.504-4.907a.54.54 0 0 0-.78-.032z"/></g><g><path fill="#464a5f" d="M239.182 181.848l-4.221 4.264a.72.72 0 0 0 0 1.01l4.25 4.358c.276.28.725.289 1.01.02l4.222-3.972a.724.724 0 0 0 .039-1.01l-4.25-4.65a.725.725 0 0 0-1.05-.02z"/></g><g><path fill="#464a5f" d="M246.05 188.716l-4.221 4.264a.72.72 0 0 0 0 1.01l4.26 4.37a.72.72 0 0 0 .997 0l4.222-3.97a.72.72 0 0 0 .039-1.01l-4.26-4.644a.724.724 0 0 0-1.037-.02z"/></g><g><path fill="#464a5f" d="M252.931 195.584l-4.221 4.264a.72.72 0 0 0 0 1.01l4.25 4.358a.718.718 0 0 0 1.01.02l4.222-3.972a.718.718 0 0 0 .039-1.01l-4.25-4.65a.72.72 0 0 0-1.05-.02z"/></g><g><path fill="#464a5f" d="M259.923 202.316l-4.472 4.546a.539.539 0 0 0 0 .753l4.504 4.615c.205.21.54.216.754.016l4.471-4.221a.536.536 0 0 0 .026-.754l-4.5-4.923a.539.539 0 0 0-.783-.032z"/></g><g><path fill="#464a5f" d="M189.999 118.971l-3.838 3.92a1.146 1.146 0 0 0 0 1.623l10.716 10.609a1.15 1.15 0 0 0 1.594.02l4-3.764a1.15 1.15 0 0 0 .023-1.653l-10.878-10.762a1.146 1.146 0 0 0-1.617.007z"/></g><g><path fill="#464a5f" d="M260.144 188.249l-4.693 4.79a.546.546 0 0 0 0 .76l11.564 11.446a.536.536 0 0 0 .747 0l4.89-4.601a.536.536 0 0 0 0-.773l-11.765-11.639a.536.536 0 0 0-.743.017z"/></g><g><path fill="#464a5f" d="M211.366 154.003l-4.478 4.436a.533.533 0 0 0 0 .756l24.936 25.56c.21.204.544.204.753 0l4.871-4.595a.536.536 0 0 0 0-.77l-25.329-25.397a.539.539 0 0 0-.753.01z"/></g><g opacity=".1"><path d="M193.776 157.12l-19.689 19.559a2.923 2.923 0 0 0-.032 4.11l36.415 37.396a2.922 2.922 0 0 0 4.143.046l20.273-19.942a2.923 2.923 0 0 0 .016-4.147l-37-37.022a2.923 2.923 0 0 0-4.126 0z"/></g><g><path fill="#939498" d="M193.776 156.318l-19.689 19.575a2.923 2.923 0 0 0-.032 4.11L210.47 217.4a2.922 2.922 0 0 0 4.143.046l20.273-19.942a2.923 2.923 0 0 0 .016-4.146l-37-37.02a2.923 2.923 0 0 0-4.126-.019z"/></g><g><path fill="#6c7be6" d="M212.688 53.681l-4.985 34.85 92.36 92.064 4.702-34.545a6.105 6.105 0 0 0-1.738-5.14l-88.29-87.917a1.208 1.208 0 0 0-2.05.688z"/></g><g opacity=".1"><path fill="#475eff" d="M88.32 221.579c0-.569 3.36-1.03 7.504-1.03 4.145 0 7.505.461 7.505 1.03 0 .568-3.36 1.03-7.505 1.03-4.144 0-7.504-.462-7.504-1.03z"/></g><g opacity=".1"><path fill="#475eff" d="M59.568 224.495c0-.569 3.36-1.03 7.505-1.03 4.144 0 7.504.461 7.504 1.03 0 .568-3.36 1.03-7.504 1.03-4.145 0-7.505-.462-7.505-1.03z"/></g><g opacity=".1"><path fill="#475eff" d="M25.706 220.55c0-.57 3.36-1.03 7.504-1.03 4.145 0 7.504.46 7.504 1.03 0 .568-3.36 1.029-7.504 1.029-4.145 0-7.504-.461-7.504-1.03z"/></g><g opacity=".1"><path fill="#475eff" d="M73.246 232.795c0-.405 2.389-.734 5.335-.734 2.947 0 5.335.329 5.335.734 0 .405-2.388.734-5.335.734-2.946 0-5.335-.329-5.335-.734z"/></g><g opacity=".1"><path fill="#475eff" d="M43.407 232.061c0-.405 2.388-.734 5.335-.734 2.946 0 5.335.329 5.335.734 0 .405-2.389.734-5.335.734-2.947 0-5.335-.329-5.335-.734z"/></g><g><path fill="#6c7be6" d="M66.914 224.264s10.524-34.505-1.65-48.31c-9.092-10.339-19.442-9.092-24.072-7.822a8.553 8.553 0 0 0-5.52 4.585c-1.624 3.494-1.325 9.16 10.099 15.775 19.133 11.077 20.321 26.27 20.321 26.27z"/></g><g><path fill="#6c7be6" d="M42.832 173.01s31.03 9.699 24.075 51.254"/><path fill="none" stroke="#565987" stroke-miterlimit="20" d="M42.832 173.01s31.03 9.699 24.075 51.254"/></g><g><path fill="none" stroke="#565987" stroke-miterlimit="20" d="M60.961 176.487s-4.27 2.877-2.922 7.206"/></g><g><path fill="none" stroke="#565987" stroke-miterlimit="20" d="M45.952 179.049s2.598-2.656 5.79-1.192"/></g><g><path fill="none" stroke="#565987" stroke-miterlimit="20" d="M58.217 192.412s4.586-2.329 5.774.587"/></g><g><path fill="none" stroke="#565987" stroke-miterlimit="20" d="M69.567 197.263s-3.446-.273-3.507 1.374"/></g><g><path fill="#6c7be6" d="M67.339 224.54s-12.34-25.078-15.717-24.53c-1.607.26-2.348 1.842-2.682 3.433a10.118 10.118 0 0 0 .669 6.105c1.75 4.013 6.449 11.635 17.73 14.992z"/></g><g><path fill="none" stroke="#565987" stroke-miterlimit="20" d="M51.716 204.768s12.938 18.766 15.438 19.587"/></g><g><path fill="none" stroke="#565987" stroke-miterlimit="20" d="M50.525 207.697h3.02"/></g><g><path fill="none" stroke="#565987" stroke-miterlimit="20" d="M54.142 214.561l4.735.202"/></g><g><path fill="none" stroke="#565987" stroke-miterlimit="20" d="M57.022 209.07l-.513 2.465"/></g><g><path fill="none" stroke="#565987" stroke-miterlimit="20" d="M62.059 216.575l-.094 2.24"/></g><g><path fill="#6c7be6" d="M66.972 224.54s12.34-25.078 15.714-24.53c1.623.26 2.35 1.842 2.685 3.433.416 2.055.18 4.189-.672 6.105-1.747 4.013-6.446 11.635-17.727 14.992z"/></g><g><path fill="none" stroke="#565987" stroke-miterlimit="20" d="M82.595 204.768s-12.94 18.766-15.441 19.587"/></g><g><path fill="none" stroke="#565987" stroke-miterlimit="20" d="M83.783 207.697h-3.02"/></g><g><path fill="none" stroke="#565987" stroke-miterlimit="20" d="M80.166 214.561l-4.735.202"/></g><g><path fill="none" stroke="#565987" stroke-miterlimit="20" d="M77.285 209.07l.514 2.465"/></g><g><path fill="none" stroke="#565987" stroke-miterlimit="20" d="M72.252 216.575l.091 2.24"/></g><g><path fill="#6c7be6" d="M45.803 230.395a2.127 2.127 0 0 1-.701-1.058.942.942 0 0 1 .49-1.079c.451-.172.932.14 1.299.455.367.315.786.676 1.263.61a1.916 1.916 0 0 1-.594-1.795.73.73 0 0 1 .165-.367c.25-.266.702-.153 1 .058.955.67 1.218 1.949 1.225 3.128.053-.432.058-.867.016-1.3a1.328 1.328 0 0 1 .484-1.14c.226-.12.48-.179.737-.171a1.52 1.52 0 0 1 1.198.324c.364.39.27 1.04-.048 1.468-.352.4-.771.737-1.238.994-.355.21-.659.499-.886.844a.9.9 0 0 0-.065.15h-2.682a7.487 7.487 0 0 1-1.663-1.12z"/></g><g><path fill="#6c7be6" d="M92.782 220.296a2.146 2.146 0 0 1-.705-1.058.945.945 0 0 1 .49-1.079c.452-.172.932.14 1.3.455.366.315.782.675 1.26.607a1.923 1.923 0 0 1-.595-1.795.764.764 0 0 1 .165-.364c.25-.27.702-.153 1.004.058.951.67 1.218 1.949 1.22 3.124.055-.43.062-.866.02-1.299-.041-.437.14-.866.484-1.14.226-.122.48-.182.737-.172.427-.065.86.053 1.195.325.364.39.27 1.042-.045 1.471a4.619 4.619 0 0 1-1.24.974 2.814 2.814 0 0 0-.884.844.725.725 0 0 0-.065.153h-2.685a7.468 7.468 0 0 1-1.656-1.104z"/></g><g><path fill="#6c7be6" d="M77.123 230.395a2.127 2.127 0 0 1-.701-1.058.942.942 0 0 1 .49-1.079c.451-.172.932.14 1.299.455.367.315.786.676 1.263.61a1.916 1.916 0 0 1-.594-1.795.73.73 0 0 1 .165-.367c.25-.266.702-.153 1 .058.952.67 1.218 1.949 1.225 3.128.053-.432.059-.867.016-1.3-.036-.434.144-.859.48-1.136.227-.12.481-.18.738-.172a1.52 1.52 0 0 1 1.198.325c.364.39.27 1.039-.049 1.467-.352.4-.77.737-1.237.994-.356.21-.659.5-.886.844a.892.892 0 0 0-.065.15h-2.683a7.491 7.491 0 0 1-1.659-1.124z"/></g><g><path fill="#6c7be6" d="M32.723 209.98s-1.007 1.315.464 3.299c1.471 1.984 2.683 3.663 2.192 4.9 0 0-2.218-3.689-4.023-3.738-1.806-.048-.62-2.244 1.367-4.462z"/></g><g opacity=".1"><path d="M32.723 209.98a1.655 1.655 0 0 0-.205.412c-1.763 2.068-2.701 4-1.006 4.05 1.575.041 3.468 2.863 3.92 3.571a1.35 1.35 0 0 1-.053.163s-2.218-3.69-4.023-3.738c-1.806-.049-.62-2.24 1.367-4.459z"/></g><g><path fill="#ffd037" d="M30.852 211.655c0 .464.052.838.117.838s.117-.374.117-.838c0-.464-.065-.243-.13-.243s-.104-.221-.104.243z"/></g><g><path fill="#ffd037" d="M30.213 212.207c.406.22.76.357.789.299.03-.059-.273-.28-.679-.503-.406-.225-.247-.059-.276 0-.03.058-.24-.004.166.204z"/></g><g><path fill="#6c7be6" d="M38.036 209.98s1.003 1.315-.465 3.299-2.682 3.663-2.192 4.9c0 0 2.218-3.689 4.024-3.738 1.805-.048.617-2.244-1.367-4.462z"/></g><g opacity=".1"><path d="M38.035 209.98c.088.127.156.266.205.412 1.76 2.068 2.699 4 1.007 4.05-1.578.041-3.468 2.863-3.923 3.571.015.055.033.11.055.163 0 0 2.218-3.69 4.024-3.738 1.805-.049.617-2.24-1.368-4.459z"/></g><g><path fill="#ffd037" d="M39.91 211.655c0 .464-.053.838-.114.838-.062 0-.117-.374-.117-.838 0-.464.065-.243.13-.243.064 0 .1-.221.1.243z"/></g><g><path fill="#ffd037" d="M40.559 212.207c-.406.22-.76.357-.793.299-.032-.059.276-.28.682-.503.406-.225.247-.059.276 0 .03.058.228-.004-.165.204z"/></g><g><path fill="#a8a8a8" d="M39.584 218.007s-2.812-.088-3.66-.689c-.847-.6-4.325-1.325-4.545-.357-.221.968-4.222 4.813-1.05 4.839 3.173.026 7.375-.494 8.223-1.01.847-.517 1.032-2.783 1.032-2.783z"/></g><g opacity=".2"><path d="M30.281 221.462c3.176.026 7.378-.494 8.222-1.01.65-.393.9-1.8.974-2.448h.107s-.178 2.273-1.022 2.782c-.845.51-5.05 1.036-8.223 1.01-.915 0-1.234-.324-1.217-.815.13.293.477.474 1.159.48z"/></g><g><path fill="url(#694ya)" d="M64.673 108.229l.065-.12.24-.435 1.949-1.592.25.228s-.205 2.12-.711 2.02c-.117-.023-.17.464-.182 1.227-.92-.786-1.62-1.328-1.62-1.328zm8.443 20.669l-.162-.15-.078-.07c0-.04.02-.079.029-.124zm11.606-43.163c-.026.114-.055.22-.091.325 0-.104.016-.205.023-.309zm-28.72 22.747c-.051 1.364 1.118 3.176 1.118 3.176.357.86 4.738 4.848 4.738 4.848l3.247 2.17c-.656.484-1.344.923-2.059 1.315-1.581.808-2.445 3.484-2.445 3.484s-2.397 5.757 2.445 6.566l.091.016.435.471c1.072 1.156 2.38 2.536 2.835 2.845.815.555 3.312 4.747 3.312 4.747s2.647 4.345 6.17 4.546c3.523.202 3.514-3.838 3.247-4.091a1.623 1.623 0 0 1-.217-.552c.84 1.354 1.987 3.133 2.357 3.38.61.403 2.598 3.572 2.598 3.572s2.497 5.706 2.903 6.313c.406.607 1.12 3.637 1.12 3.637s1.43 4.189 2.092 4.747c.662.559 1.016 2.576 1.016 2.576s2.088 3.03 2.445 3.533c.418.735.792 1.494 1.12 2.273 0 0 1.121 1.818 1.121 2.526 0 .708 2.345 1.916 2.345 1.916s1.682 1.971 2.65 2.325c.967.354 1.883 2.676 2.036 2.523a.607.607 0 0 1 .289-.058l.396.396c1.545 1.54 4.634 4.608 5.426 5.319 1.072.974 3.517 1.11 5.553.708 1.045-.208 2.318-1.198 3.309-2.114a2.273 2.273 0 0 0 .039-3.283c-.974-.939-2.101-1.968-2.598-2.127-.916-.305-3.514-2.12-4.735-3.637-.65-.79-1.789-1.54-2.747-2.075l-.117-.068a10.14 10.14 0 0 1-.295-1.695s1.682-3.787.763-3.988c-.92-.201-4.38-6.212-4.38-6.212-.05-4.546-4.222-8.385-4.222-8.385s-2.088-4.948-2.699-6.007a1.624 1.624 0 0 1 0-1.819s-1.172-.909-1.373-1.363c-.202-.455-1.173-3.897-1.173-3.897s-1.172-2.072-1.224-3.03c-.052-.958-2.335-3.63-2.335-3.63s-.925-4.501-1.948-5.31c-.198-.156-.169-.75 0-1.604l.049-.052.156-.152.045-.046c.468-.462.908-.95 1.318-1.464l.02-.026c.065-.082.127-.16.185-.24 1.478-2.02 2.393-6.82 2.393-6.82s.293-.136.673-.344a6.41 6.41 0 0 0 1.467-1.01.325.325 0 0 0 .052-.078.065.065 0 0 0 0-.026c.01-.02.019-.04.026-.062a.168.168 0 0 0 0-.035.47.47 0 0 0 0-.072v-.153c0-.042 0-.084-.016-.13v-.016c0-.039-.016-.078-.026-.12v-.039c0-.035-.02-.071-.032-.11a.3.3 0 0 0 0-.042l-.04-.12a.115.115 0 0 1 0-.03 6.42 6.42 0 0 0-.22-.5l-.088-.165a8.83 8.83 0 0 0-.5-.854l-.026-.04c.357-1.006 1.049-2.78 1.692-3.416.916-.909-.51-5.757-.51-5.757s-.305-3.432-.714-4.442c-.41-1.01 0-1.156-.325-2.02-.393-.974-.679-.91-.172-3.13.191-.838.487-1.76.753-2.621l.325.299c1.883 1.776 4.842 4.088 4.842 4.088s5.806 5.25 6.316 5.403c.51.153 2.039 5.303 2.039 5.303s-.357 8.534 4.328 8.888c1.991.15 2.835-1.39 3.14-3.205a9.67 9.67 0 0 0-2.295-7.927l-2.806-3.188-2.497-4.443a45.25 45.25 0 0 1-3.997-7.936 22.11 22.11 0 0 0-4.897-7.238l-.202-.198.26-.24s-.41-3.332-.714-3.735c-.306-.403-1.426-2.728-1.426-3.247 0-.52-.714-.604-1.12-1.212 0 0-.715-1.412-1.377-1.623a.974.974 0 0 1-.325-.208 7.313 7.313 0 0 0-4.163-1.802l-.406-.04a22.734 22.734 0 0 0-2.708.04h-.023c-.691-.208-1.214-.747-1.75-1.228a13.766 13.766 0 0 0-2.848-1.964c-1.055-.55-2.25-.975-3.429-.773-.922.15-1.747.65-2.647.912-1.279.36-2.85.286-3.656 1.335-.386.5-.497 1.166-.857 1.682-.513.734-1.455 1.075-1.984 1.799a2.76 2.76 0 0 0-.458 1.793 4.981 4.981 0 0 0 .182 1.516c.134.424.233.858.295 1.299a1.622 1.622 0 0 1-.036.214c-.071.325-.237.598-.302.913a1.646 1.646 0 0 0-.016.52c-.097.775.403 1.513.74 2.233.262.564.434 1.164.51 1.78-.845.25-1.669.566-2.464.945-1.062.513-2.13 1.208-2.741 2.098a13.882 13.882 0 0 1-3.67 3.542 28.853 28.853 0 0 0-1.12 3.326c-.305 1.299-.61 3.432-1.526 4.546-.916 1.114-1.338 4.42-1.338 4.42s-1.224 1.967-1.224 2.373c0 .406-.153 2.273 0 2.825.09.174.21.33.354.462l-.091.324c-.422 1.484-.994 3.624-1.026 4.478z"/></g><g><path fill="#464353" d="M82.257 68.894s6.063-.545 7.505-.396l.392.036a7.105 7.105 0 0 1 4.043 1.796c.094.089.204.158.325.204.65.198 1.341 1.592 1.341 1.592S94.324 84.3 94.324 84.449c0 .15-3.182 5.663-3.182 5.663l-3.082 1.195-5.316.75-.15-2.292s2.56-1.403 2.274-4.303c-.286-2.9-2.61-16.567-2.61-16.567z"/></g><g><path fill="#ecb4b6" d="M85.238 83.355s-1.299 5.864 0 7.751c1.299 1.887-12.82-3.078-12.82-3.078l-2.598-4.673s.974-.692 2.072-1.585c1.545-1.244 3.396-2.874 3.396-3.572.017-1.205 9.95 5.157 9.95 5.157z"/></g><g opacity=".1"><path d="M85.238 83.355s-1.299 5.864 0 7.751c1.299 1.887-12.82-3.078-12.82-3.078l-2.598-4.673s.974-.692 2.072-1.585c1.545-1.244 3.396-2.874 3.396-3.572.017-1.205 9.95 5.157 9.95 5.157z"/></g><g opacity=".1"><path d="M73.61 78.594a8.648 8.648 0 1 1 17.295 0 8.648 8.648 0 0 1-17.295 0z"/></g><g><path fill="#ecb4b6" d="M73.61 78.195a8.648 8.648 0 1 1 17.295 0 8.648 8.648 0 0 1-17.295 0z"/></g><g><path fill="#ecb4b6" d="M93.438 88.927c.032.325.649.997 1.487 1.793 1.838 1.747 4.725 4.023 4.725 4.023s5.666 5.166 6.17 5.316c.503.15 1.987 5.218 1.987 5.218s-.348 8.398 4.221 8.745c1.949.146 2.767-1.364 3.066-3.153a9.576 9.576 0 0 0-2.238-7.794l-2.714-3.16-2.436-4.373a44.437 44.437 0 0 1-3.926-7.794 21.734 21.734 0 0 0-4.77-7.144c-.51-.506-.838-.776-.838-.776l-2.273.695s-2.559 7.404-2.461 8.404z"/></g><g><path fill="#c17174" d="M102.134 176.484l.87.873c1.507 1.517 4.52 4.546 5.293 5.235 1.042.945 3.43 1.094 5.417.695 1.02-.202 2.273-1.18 3.227-2.079a2.234 2.234 0 0 0 .036-3.23c-.942-.923-2.046-1.949-2.52-2.095-.893-.299-3.429-2.085-4.62-3.572-.621-.776-1.745-1.513-2.677-2.043a19.671 19.671 0 0 0-1.548-.789z"/></g><g opacity=".1"><path d="M103.361 176.484s.29.295.737.743c1.283 1.3 3.845 3.858 4.504 4.452.887.802 2.923.93 4.605.591.76-.152 1.666-.805 2.432-1.48a2.237 2.237 0 0 0 .081-3.293c-.733-.705-1.52-1.403-1.88-1.523-.76-.253-2.922-1.776-3.929-3.043a8.343 8.343 0 0 0-2.273-1.737c-.728-.413-1.315-.672-1.315-.672z"/></g><g><path fill="#c17174" d="M62.64 129.271s.682.77 1.51 1.673c1.043 1.14 2.322 2.497 2.764 2.799.795.549 3.23 4.673 3.23 4.673s2.599 4.273 6.015 4.471c3.416.198 3.429-3.776 3.179-4.023-.25-.247-.595-2.488-1.091-4.127-.377-1.24-3.459-4.19-4.933-5.55-.474-.439-.783-.711-.783-.711z"/></g><g opacity=".1"><path d="M63.37 129.843s.618.701 1.374 1.526c.952 1.04 2.118 2.273 2.52 2.553.728.5 2.946 4.26 2.946 4.26s2.357 3.897 5.484 4.075c3.127.179 3.124-3.442 2.9-3.67-.224-.226-.545-2.272-.997-3.76-.344-1.13-3.153-3.818-4.497-5.059-.432-.4-.715-.65-.715-.65z"/></g><g opacity=".1"><path d="M62.64 129.271s.682.77 1.51 1.673c4.365.65 6.394-.081 6.394-.081s2.036-.897 2.484-.945c.114 0 .195-.296.286-.731-.474-.439-.783-.711-.783-.711z"/></g><g><path fill="#5e5a6b" d="M67.898 117.545s-2.735 2.231-4.284 3.03c-1.549.799-2.377 3.423-2.377 3.423s-2.334 5.666 2.384 6.459c4.718.792 6.91 0 6.91 0s2.036-.893 2.484-.942c.448-.049.445-4.325 2.085-5.618 1.64-1.292 5.417-4.221 5.417-4.221z"/></g><g opacity=".1"><path d="M67.898 117.545s-2.735 2.231-4.284 3.03c-1.549.799-2.377 3.423-2.377 3.423s-2.334 5.666 2.384 6.459c4.718.792 6.91 0 6.91 0s2.036-.893 2.484-.942c.448-.049.445-4.325 2.085-5.618 1.64-1.292 5.417-4.221 5.417-4.221z"/></g><g><path fill="#5e5a6b" d="M93.434 110.736s1.949 2.653 1.345 3.29c-.604.636-2.085 1.33-2.085 1.33s-.896 4.722-2.338 6.71c-1.442 1.987-4.27 4.176-4.27 4.176l1.984-11.083z"/></g><g opacity=".1"><path d="M86.089 126.242a32.803 32.803 0 0 0 2.54-2.228 15.91 15.91 0 0 0 1.727-1.948c1.442-1.988 2.338-6.71 2.338-6.71s1.49-.694 2.085-1.33c.363-.387-.211-1.514-.718-2.342-.325-.539-.623-.948-.623-.948l-2.816 2.318-2.552 2.105-.75 4.293z"/></g><g opacity=".1"><path d="M102.134 176.484l.87.873c.549 0 1.367.068 1.367.068s4.024-4.822 3.377-5.666a4.118 4.118 0 0 1-.588-1.497c-.857-.484-1.548-.79-1.548-.79z"/></g><g><path fill="#5e5a6b" d="M71.424 125.595c0 .845 6.758 11.18 6.758 11.18s2.633 4.472 3.23 4.872c.598.4 2.534 3.526 2.534 3.526s2.435 5.615 2.835 6.212c.399.598 1.09 3.572 1.09 3.572s1.394 4.125 2.04 4.67c.646.546.994 2.536.994 2.536s2.036 2.981 2.383 3.478c.408.723.773 1.469 1.094 2.234 0 0 1.095 1.79 1.095 2.488s2.273 1.886 2.273 1.886 1.624 1.949 2.581 2.273c.958.325 1.842 2.634 1.988 2.485.146-.15 1.841 0 1.841 0s4.023-4.82 3.377-5.664c-.646-.844-.795-2.835-.795-2.835s1.623-3.724.747-3.922c-.877-.198-4.258-6.096-4.258-6.096-.048-4.471-4.124-8.248-4.124-8.248s-2.039-4.87-2.633-5.913a1.604 1.604 0 0 1 0-1.79s-1.143-.892-1.341-1.34c-.198-.448-1.143-3.826-1.143-3.826s-1.143-2.039-1.195-2.984c-.052-.945-2.274-3.572-2.274-3.572s-.902-4.426-1.896-5.222c-.195-.155-.162-.737 0-1.581.458-2.224 1.916-6.245 2.923-8.878.574-1.507 1-2.562 1-2.562l-1.923.48-16.366 4.092s-.886 2.38-1.666 4.624c-.62 1.767-1.169 3.452-1.169 3.825z"/></g><g opacity=".1"><path d="M103.18 166.294s5.117-1.988 2.597.545-7.352 2.387-7.352 2.387z"/></g><g opacity=".1"><path d="M94.431 156.146s-2.88 1.591-2.335 3.13"/></g><g opacity=".1"><path d="M91.541 143.832a3.013 3.013 0 0 1-2.835 1.54"/></g><g opacity=".1"><path d="M64.517 121.725s1.094 3.38 0 3.627"/></g><g opacity=".1"><path d="M93.437 88.927c.033.325.65.997 1.488 1.793.474-1.527.915-2.923.65-3.384-.397-.695 1.155-2.186.876-3.18-.214-.76 1.656-2.685 2.546-3.545-.51-.507-.838-.776-.838-.776l-2.273.695s-2.546 7.397-2.449 8.397z"/></g><g opacity=".1"><path d="M72.59 121.77c1.887-.104 6.287-1.468 6.287-1.468s5.101-.168 8.443-.85c1.623-.325 2.805-.79 2.805-1.403 0-.822.672-1.923 1.436-2.923a23.282 23.282 0 0 1 1.669-1.893c.31-.318.546-.7.691-1.12.046-.133.101-.283.156-.439-.325-.539-.623-.948-.623-.948l-2.816 2.319-16.366 4.091s-.916 2.39-1.682 4.634z"/></g><g><path fill="#464353" d="M67.15 118.54s3.677 2.185 4.77 2.58c1.095.397 6.957-1.415 6.957-1.415s11.232-.37 11.232-2.273c0-1.458 2.13-3.803 3.104-4.797.311-.318.548-.702.692-1.123.341-.974 1.03-2.783 1.67-3.423.895-.893-.498-5.663-.498-5.663s-.298-3.38-.695-4.374c-.396-.994 0-1.14-.324-1.987-.383-.952-.65-.897-.166-3.082.484-2.186 1.689-4.968 1.299-5.667-.39-.698 1.156-2.185.877-3.179-.28-.993 2.997-3.974 2.997-3.974s-.41-3.251-.705-3.667c-.295-.415-1.39-2.682-1.39-3.179 0-.497-.698-.597-1.094-1.191-.396-.595-4.984 15.405-4.984 15.405l-6.687 1.506-.37.082s-3.802.178-6.27-1.192c0 0-4.264-.695-5.657-7.751a16.338 16.338 0 0 0-3.091 1.117c-1.036.503-2.076 1.188-2.673 2.062a13.529 13.529 0 0 1-3.572 3.487 28.935 28.935 0 0 0-1.094 3.27c-.296 1.3-.595 3.38-1.49 4.475-.897 1.094-1.3 4.37-1.3 4.37l8.96 8.155s-.199 2.088-.695 1.987c-.497-.1.198 9.44.198 9.44z"/></g><g opacity=".1"><path d="M68.83 81.689l4.78 9.966s1.987 1.299 2.685.594 3.328-.695 3.328-.695l.348.695 5.036-1.189-.789-1.623-.37.084s-3.802.179-6.27-1.192c0 0-4.264-.698-5.657-7.754-1.065.266-2.101.64-3.091 1.114z"/></g><g><path fill="#464353" d="M68.83 81.293l4.78 9.962s1.987 1.3 2.685.598c.698-.702 3.328-.695 3.328-.695l.348.695 5.036-1.192-.789-1.624-.37.082s-3.802.178-6.27-1.192c0 0-4.264-.695-5.657-7.751a16.335 16.335 0 0 0-3.091 1.117z"/></g><g opacity=".1"><path d="M70.927 110.288s10.547 3.318 11.33 3.737"/></g><g opacity=".1"><path d="M77.578 115.357s-2.773 1.542-3.767.993"/></g><g opacity=".1"><path d="M86.284 96.925s2.669 14.259-1.276 18.432"/></g><g opacity=".1"><path d="M90.67 75.457a2.988 2.988 0 0 0 .108-3.942c-.344-.39-.796-.685-1.078-1.124a4.828 4.828 0 0 0-.526-.863c-.513-.526-1.377-.387-2.082-.601-.704-.214-1.182-.734-1.705-1.205a13.397 13.397 0 0 0-2.776-1.948c-1.033-.54-2.198-.948-3.348-.76-.9.15-1.701.65-2.581.9-1.247.353-2.783.282-3.573 1.315-.373.49-.48 1.143-.834 1.653-.5.72-1.42 1.058-1.948 1.77-.582.801-.52 1.902-.27 2.86.166.62.4 1.257.253 1.88-.071.306-.23.588-.292.897-.162.805.357 1.568.705 2.315.374.808.558 1.691.539 2.582-.025.2.003.402.081.587.098.15.234.27.393.351l1.494.942c.07.05.15.085.233.104.293.045.471-.29.65-.513.5-.598 1.451-.552 2.156-.215.705.338 1.283.893 1.99 1.215 1.66.756 3.573.084 5.368-.263a11.85 11.85 0 0 0 1.816-.41 8.445 8.445 0 0 0 1.59-.854 5.673 5.673 0 0 0 1.362-1.068 1.92 1.92 0 0 0 .45-1.76c-.145-.523-.613-.994-.519-1.575.189-1.007 1.692-1.607 2.345-2.27z"/></g><g><path fill="#464353" d="M90.67 75.061a2.99 2.99 0 0 0 .108-3.945c-.344-.387-.796-.685-1.078-1.12a4.975 4.975 0 0 0-.526-.868c-.513-.522-1.377-.383-2.082-.597-.704-.214-1.182-.737-1.705-1.208a13.26 13.26 0 0 0-2.776-1.949c-1.033-.539-2.198-.948-3.348-.76-.9.15-1.702.65-2.581.9-1.247.354-2.783.28-3.573 1.299-.373.494-.48 1.146-.834 1.656-.5.721-1.42 1.059-1.948 1.77-.582.802-.52 1.903-.27 2.86.166.618.4 1.257.253 1.881-.071.305-.23.588-.292.896-.162.806.357 1.569.705 2.312.385.82.575 1.716.555 2.62-.024.202.004.405.081.592.1.147.235.268.393.35l1.494.939a.65.65 0 0 0 .234.107c.292.042.47-.289.65-.516.5-.598 1.45-.549 2.155-.214.705.334 1.283.893 1.991 1.214 1.66.757 3.572.084 5.368-.26a12.25 12.25 0 0 0 1.815-.412 8.442 8.442 0 0 0 1.591-.85 5.686 5.686 0 0 0 1.36-1.073 1.913 1.913 0 0 0 .452-1.756c-.146-.526-.614-.997-.52-1.575.173-1.033 1.676-1.634 2.329-2.293z"/></g><g><path fill="#ecb4b6" d="M56.766 109.245c-.052 1.341 1.09 3.13 1.09 3.13.348.845 4.622 4.771 4.622 4.771l3.38 2.273s4.524 2.783 5.592 3.28c.536.25 1.11 1.299 1.556 2.325.444 1.026.753 1.948.753 1.948a4.445 4.445 0 0 0 3.777-3.948c.126-1.28.21-2.43.1-2.452-.25-.049-3.033-2.137-3.033-2.137s-3.228-2.088-4.273-4.173c-1.046-2.084-5.118-5.267-5.118-5.267l.065-.12.234-.428.497-1.64-7.794-3.478s-.191.633-.438 1.5c-.422 1.461-.98 3.582-1.01 4.416z"/></g><g opacity=".1"><path d="M57.77 104.839a43.22 43.22 0 0 0 4.711 4.017c.484.282 2.179.107 2.8.029l.233-.429.497-1.64-7.794-3.477s-.204.626-.448 1.5z"/></g><g><path fill="#464353" d="M65.51 98.809s3.976 2.386 3.777 3.429c-.198 1.042-1.883 4.647-1.883 4.647l-1.893 1.565s-2.436.347-3.033 0c-.598-.348-4.82-3.826-4.969-4.371-.149-.546 0-2.387 0-2.783 0-.396 1.192-2.338 1.192-2.338l1.74-3.079z"/></g><g opacity=".1"><path d="M78.877 120.293l1.169 3.14-1.971 1.864-.091.561-4.374 2.517-1.39-3.51z"/></g><g><path fill="#5e5a6b" d="M78.877 120.095l1.169 3.136-1.971 1.868-.091.561-4.374 2.517-1.39-3.51z"/></g><g opacity=".1"><g opacity=".1"><path d="M88.417 77.107a1.13 1.13 0 0 1-.065-.562c.163-1.016 1.666-1.623 2.319-2.273a2.835 2.835 0 0 0 .77-1.624 2.939 2.939 0 0 1-.77 2.433c-.601.587-1.92 1.146-2.254 2.026z"/></g><g opacity=".1"><path d="M70.054 75.834c.172.55.402 1.082.685 1.585.375.808.56 1.69.542 2.581-.025.2.001.404.078.591.1.148.235.268.393.35l1.494.94c.07.052.151.089.237.107.289.042.468-.29.65-.514.5-.597 1.454-.552 2.156-.217.701.334 1.282.893 1.99 1.218 1.663.753 3.572.084 5.368-.263.615-.09 1.222-.228 1.815-.413a8.327 8.327 0 0 0 1.591-.85 5.682 5.682 0 0 0 1.364-1.072c.223-.26.38-.568.461-.9a1.929 1.929 0 0 1-.46 1.695 5.766 5.766 0 0 1-1.365 1.072 8.328 8.328 0 0 1-1.59.85c-.595.184-1.201.322-1.816.413-1.793.344-3.705 1.017-5.368.26-.708-.325-1.299-.877-1.99-1.214-.692-.338-1.657-.384-2.157.214-.188.227-.367.558-.65.516a.649.649 0 0 1-.236-.107l-1.494-.938a1.14 1.14 0 0 1-.393-.351 1.172 1.172 0 0 1-.078-.591 5.845 5.845 0 0 0-.542-2.582c-.347-.743-.867-1.507-.705-2.312a.543.543 0 0 1 .02-.068z"/></g><g opacity=".1"><path d="M70.077 72.33c.159.604.386 1.23.26 1.841-.06-.35-.17-.701-.26-1.045a4.69 4.69 0 0 1-.163-1.682c.03.3.083.596.163.886z"/></g></g><g opacity=".1"><path fill="#475eff" d="M0 43.228a7.024 7.024 0 1 1 14.048 0 7.024 7.024 0 0 1-14.048 0z"/></g><g opacity=".1"><path fill="#475eff" d="M190.652 13.632a7.024 7.024 0 1 1 14.047 0 7.024 7.024 0 0 1-14.047 0z"/></g><g opacity=".1"><path fill="#475eff" d="M302.082 41.38a7.024 7.024 0 1 1 14.048 0 7.024 7.024 0 0 1-14.048 0z"/></g><g opacity=".1"><path fill="#475eff" d="M9.297 81.978c0-6.501 5.27-11.772 11.771-11.772 6.502 0 11.772 5.27 11.772 11.772 0 6.501-5.27 11.771-11.772 11.771-6.5 0-11.771-5.27-11.771-11.771z"/></g><g opacity=".1"><path fill="#475eff" d="M153.074 256.36c0-6.5 5.27-11.77 11.771-11.77 6.502 0 11.772 5.27 11.772 11.77 0 6.502-5.27 11.772-11.772 11.772-6.5 0-11.771-5.27-11.771-11.772z"/></g><g opacity=".1"><path fill="#475eff" d="M309.889 249.574c0-6.502 5.27-11.772 11.771-11.772 6.501 0 11.772 5.27 11.772 11.772 0 6.5-5.27 11.771-11.772 11.771-6.501 0-11.771-5.27-11.771-11.771z"/></g></g></g></svg>